<svg width="551" height="40" viewBox="0 0 551 40" fill="none" xmlns="http://www.w3.org/2000/svg">
<circle cx="20" cy="20" r="20" fill="#A35D0A"/>
<path d="M29 26.75V20.1301C29 18.9814 29 18.4071 28.8519 17.8781C28.7208 17.4096 28.5053 16.9689 28.2159 16.5777C27.8893 16.1361 27.436 15.7835 26.5292 15.0783L23.9292 13.0561L23.9292 13.0561C22.5239 11.963 21.8213 11.4165 21.0454 11.2065C20.3608 11.0211 19.6392 11.0211 18.9546 11.2065C18.1787 11.4165 17.4761 11.963 16.0708 13.0561L13.4708 15.0783C12.564 15.7835 12.1107 16.1361 11.7841 16.5777C11.4947 16.9689 11.2792 17.4096 11.1481 17.8781C11 18.4071 11 18.9814 11 20.1301V26.75C11 27.4478 11 27.7967 11.0861 28.0806C11.28 28.7198 11.7802 29.22 12.4194 29.4139C12.7033 29.5 13.0522 29.5 13.75 29.5H14.375C14.4911 29.5 14.5491 29.5 14.5981 29.4976C15.6255 29.4471 16.4471 28.6255 16.4976 27.5981C16.5 27.5491 16.5 27.4911 16.5 27.375V24.5C16.5 22.567 18.067 21 20 21C21.933 21 23.5 22.567 23.5 24.5V27.375C23.5 27.4911 23.5 27.5491 23.5024 27.5981C23.5529 28.6255 24.3745 29.4471 25.4019 29.4976C25.4509 29.5 25.5089 29.5 25.625 29.5H26.25C26.9478 29.5 27.2967 29.5 27.5806 29.4139C28.2198 29.22 28.72 28.7198 28.9139 28.0806C29 27.7967 29 27.4478 29 26.75Z" stroke="white" stroke-width="1.8"/>
<path d="M56.2812 15.4688V16.3945H52.168V24H51.043V15.4688H56.2812ZM56.1172 20.9004V20.7656C56.1172 20.3086 56.1836 19.8848 56.3164 19.4941C56.4492 19.0996 56.6406 18.7578 56.8906 18.4688C57.1406 18.1758 57.4434 17.9492 57.7988 17.7891C58.1543 17.625 58.5527 17.543 58.9941 17.543C59.4395 17.543 59.8398 17.625 60.1953 17.7891C60.5547 17.9492 60.8594 18.1758 61.1094 18.4688C61.3633 18.7578 61.5566 19.0996 61.6895 19.4941C61.8223 19.8848 61.8887 20.3086 61.8887 20.7656V20.9004C61.8887 21.3574 61.8223 21.7812 61.6895 22.1719C61.5566 22.5625 61.3633 22.9043 61.1094 23.1973C60.8594 23.4863 60.5566 23.7129 60.2012 23.877C59.8496 24.0371 59.4512 24.1172 59.0059 24.1172C58.5605 24.1172 58.1602 24.0371 57.8047 23.877C57.4492 23.7129 57.1445 23.4863 56.8906 23.1973C56.6406 22.9043 56.4492 22.5625 56.3164 22.1719C56.1836 21.7812 56.1172 21.3574 56.1172 20.9004ZM57.2012 20.7656V20.9004C57.2012 21.2168 57.2383 21.5156 57.3125 21.7969C57.3867 22.0742 57.498 22.3203 57.6465 22.5352C57.7988 22.75 57.9883 22.9199 58.2148 23.0449C58.4414 23.166 58.7051 23.2266 59.0059 23.2266C59.3027 23.2266 59.5625 23.166 59.7852 23.0449C60.0117 22.9199 60.1992 22.75 60.3477 22.5352C60.4961 22.3203 60.6074 22.0742 60.6816 21.7969C60.7598 21.5156 60.7988 21.2168 60.7988 20.9004V20.7656C60.7988 20.4531 60.7598 20.1582 60.6816 19.8809C60.6074 19.5996 60.4941 19.3516 60.3418 19.1367C60.1934 18.918 60.0059 18.7461 59.7793 18.6211C59.5566 18.4961 59.2949 18.4336 58.9941 18.4336C58.6973 18.4336 58.4355 18.4961 58.209 18.6211C57.9863 18.7461 57.7988 18.918 57.6465 19.1367C57.498 19.3516 57.3867 19.5996 57.3125 19.8809C57.2383 20.1582 57.2012 20.4531 57.2012 20.7656ZM65.7031 17.6602V24H64.6133V17.6602H65.7031ZM67.8301 17.6602V18.5391H62.5273V17.6602H67.8301ZM68.3633 20.9004V20.7656C68.3633 20.3086 68.4297 19.8848 68.5625 19.4941C68.6953 19.0996 68.8867 18.7578 69.1367 18.4688C69.3867 18.1758 69.6895 17.9492 70.0449 17.7891C70.4004 17.625 70.7988 17.543 71.2402 17.543C71.6855 17.543 72.0859 17.625 72.4414 17.7891C72.8008 17.9492 73.1055 18.1758 73.3555 18.4688C73.6094 18.7578 73.8027 19.0996 73.9355 19.4941C74.0684 19.8848 74.1348 20.3086 74.1348 20.7656V20.9004C74.1348 21.3574 74.0684 21.7812 73.9355 22.1719C73.8027 22.5625 73.6094 22.9043 73.3555 23.1973C73.1055 23.4863 72.8027 23.7129 72.4473 23.877C72.0957 24.0371 71.6973 24.1172 71.252 24.1172C70.8066 24.1172 70.4062 24.0371 70.0508 23.877C69.6953 23.7129 69.3906 23.4863 69.1367 23.1973C68.8867 22.9043 68.6953 22.5625 68.5625 22.1719C68.4297 21.7812 68.3633 21.3574 68.3633 20.9004ZM69.4473 20.7656V20.9004C69.4473 21.2168 69.4844 21.5156 69.5586 21.7969C69.6328 22.0742 69.7441 22.3203 69.8926 22.5352C70.0449 22.75 70.2344 22.9199 70.4609 23.0449C70.6875 23.166 70.9512 23.2266 71.252 23.2266C71.5488 23.2266 71.8086 23.166 72.0312 23.0449C72.2578 22.9199 72.4453 22.75 72.5938 22.5352C72.7422 22.3203 72.8535 22.0742 72.9277 21.7969C73.0059 21.5156 73.0449 21.2168 73.0449 20.9004V20.7656C73.0449 20.4531 73.0059 20.1582 72.9277 19.8809C72.8535 19.5996 72.7402 19.3516 72.5879 19.1367C72.4395 18.918 72.252 18.7461 72.0254 18.6211C71.8027 18.4961 71.541 18.4336 71.2402 18.4336C70.9434 18.4336 70.6816 18.4961 70.4551 18.6211C70.2324 18.7461 70.0449 18.918 69.8926 19.1367C69.7441 19.3516 69.6328 19.5996 69.5586 19.8809C69.4844 20.1582 69.4473 20.4531 69.4473 20.7656ZM78.4707 21.2109H76.3906L76.3789 20.3438H78.0781C78.4141 20.3438 78.6934 20.3105 78.916 20.2441C79.1426 20.1777 79.3125 20.0781 79.4258 19.9453C79.5391 19.8125 79.5957 19.6484 79.5957 19.4531C79.5957 19.3008 79.5625 19.168 79.4961 19.0547C79.4336 18.9375 79.3379 18.8418 79.209 18.7676C79.0801 18.6895 78.9199 18.6328 78.7285 18.5977C78.541 18.5586 78.3203 18.5391 78.0664 18.5391H76.6777V24H75.5938V17.6602H78.0664C78.4688 17.6602 78.8301 17.6953 79.1504 17.7656C79.4746 17.8359 79.75 17.9434 79.9766 18.0879C80.207 18.2285 80.3828 18.4082 80.5039 18.627C80.625 18.8457 80.6855 19.1035 80.6855 19.4004C80.6855 19.5918 80.6465 19.7734 80.5684 19.9453C80.4902 20.1172 80.375 20.2695 80.2227 20.4023C80.0703 20.5352 79.8828 20.6445 79.6602 20.7305C79.4375 20.8125 79.1816 20.8652 78.8926 20.8887L78.4707 21.2109ZM78.4707 24H75.998L76.5371 23.1211H78.4707C78.7715 23.1211 79.0215 23.084 79.2207 23.0098C79.4199 22.9316 79.5684 22.8223 79.666 22.6816C79.7676 22.5371 79.8184 22.3652 79.8184 22.166C79.8184 21.9668 79.7676 21.7969 79.666 21.6562C79.5684 21.5117 79.4199 21.4023 79.2207 21.3281C79.0215 21.25 78.7715 21.2109 78.4707 21.2109H76.8242L76.8359 20.3438H78.8926L79.2852 20.6719C79.6328 20.6992 79.9277 20.7852 80.1699 20.9297C80.4121 21.0742 80.5957 21.2578 80.7207 21.4805C80.8457 21.6992 80.9082 21.9375 80.9082 22.1953C80.9082 22.4922 80.8516 22.7539 80.7383 22.9805C80.6289 23.207 80.4688 23.3965 80.2578 23.5488C80.0469 23.6973 79.791 23.8105 79.4902 23.8887C79.1895 23.9629 78.8496 24 78.4707 24ZM86.5156 17.6602V24H85.4316V17.6602H86.5156ZM90.6758 17.6602L87.6699 21.293H86.1523L85.9883 20.3438H87.2305L89.3574 17.6602H90.6758ZM89.5098 24L87.1777 21.1289L87.875 20.3438L90.8867 24H89.5098ZM97.7832 21.2109H95.7031L95.6914 20.3438H97.3906C97.7266 20.3438 98.0059 20.3105 98.2285 20.2441C98.4551 20.1777 98.625 20.0781 98.7383 19.9453C98.8516 19.8125 98.9082 19.6484 98.9082 19.4531C98.9082 19.3008 98.875 19.168 98.8086 19.0547C98.7461 18.9375 98.6504 18.8418 98.5215 18.7676C98.3926 18.6895 98.2324 18.6328 98.041 18.5977C97.8535 18.5586 97.6328 18.5391 97.3789 18.5391H95.9902V24H94.9062V17.6602H97.3789C97.7812 17.6602 98.1426 17.6953 98.4629 17.7656C98.7871 17.8359 99.0625 17.9434 99.2891 18.0879C99.5195 18.2285 99.6953 18.4082 99.8164 18.627C99.9375 18.8457 99.998 19.1035 99.998 19.4004C99.998 19.5918 99.959 19.7734 99.8809 19.9453C99.8027 20.1172 99.6875 20.2695 99.5352 20.4023C99.3828 20.5352 99.1953 20.6445 98.9727 20.7305C98.75 20.8125 98.4941 20.8652 98.2051 20.8887L97.7832 21.2109ZM97.7832 24H95.3105L95.8496 23.1211H97.7832C98.084 23.1211 98.334 23.084 98.5332 23.0098C98.7324 22.9316 98.8809 22.8223 98.9785 22.6816C99.0801 22.5371 99.1309 22.3652 99.1309 22.166C99.1309 21.9668 99.0801 21.7969 98.9785 21.6562C98.8809 21.5117 98.7324 21.4023 98.5332 21.3281C98.334 21.25 98.084 21.2109 97.7832 21.2109H96.1367L96.1484 20.3438H98.2051L98.5977 20.6719C98.9453 20.6992 99.2402 20.7852 99.4824 20.9297C99.7246 21.0742 99.9082 21.2578 100.033 21.4805C100.158 21.6992 100.221 21.9375 100.221 22.1953C100.221 22.4922 100.164 22.7539 100.051 22.9805C99.9414 23.207 99.7812 23.3965 99.5703 23.5488C99.3594 23.6973 99.1035 23.8105 98.8027 23.8887C98.502 23.9629 98.1621 24 97.7832 24ZM102.564 19.8398H104.469C104.98 19.8398 105.412 19.9297 105.764 20.1094C106.115 20.2852 106.381 20.5293 106.561 20.8418C106.744 21.1504 106.836 21.502 106.836 21.8965C106.836 22.1895 106.785 22.4648 106.684 22.7227C106.582 22.9766 106.43 23.1992 106.227 23.3906C106.027 23.582 105.779 23.7324 105.482 23.8418C105.189 23.9473 104.852 24 104.469 24H101.773V17.6602H102.857V23.1094H104.469C104.781 23.1094 105.031 23.0527 105.219 22.9395C105.406 22.8262 105.541 22.6797 105.623 22.5C105.705 22.3203 105.746 22.1328 105.746 21.9375C105.746 21.7461 105.705 21.5586 105.623 21.375C105.541 21.1914 105.406 21.0391 105.219 20.918C105.031 20.793 104.781 20.7305 104.469 20.7305H102.564V19.8398ZM109.092 17.6602V24H108.008V17.6602H109.092ZM112.133 17.6602H113.217L113.123 20.0332C113.1 20.6348 113.031 21.1543 112.918 21.5918C112.805 22.0293 112.66 22.4023 112.484 22.7109C112.309 23.0156 112.111 23.2715 111.893 23.4785C111.678 23.6855 111.455 23.8594 111.225 24H110.686L110.715 23.1152L110.938 23.1094C111.066 22.957 111.191 22.8008 111.312 22.6406C111.434 22.4766 111.545 22.2832 111.646 22.0605C111.748 21.834 111.832 21.5586 111.898 21.2344C111.969 20.9062 112.014 20.5059 112.033 20.0332L112.133 17.6602ZM112.402 17.6602H116.217V24H115.133V18.6621H112.402V17.6602ZM110.439 23.1094H117.031V25.8691H115.947V24H111.523V25.8691H110.434L110.439 23.1094ZM121.971 22.916V19.6523C121.971 19.4023 121.92 19.1855 121.818 19.002C121.721 18.8145 121.572 18.6699 121.373 18.5684C121.174 18.4668 120.928 18.416 120.635 18.416C120.361 18.416 120.121 18.4629 119.914 18.5566C119.711 18.6504 119.551 18.7734 119.434 18.9258C119.32 19.0781 119.264 19.2422 119.264 19.418H118.18C118.18 19.1914 118.238 18.9668 118.355 18.7441C118.473 18.5215 118.641 18.3203 118.859 18.1406C119.082 17.957 119.348 17.8125 119.656 17.707C119.969 17.5977 120.316 17.543 120.699 17.543C121.16 17.543 121.566 17.6211 121.918 17.7773C122.273 17.9336 122.551 18.1699 122.75 18.4863C122.953 18.7988 123.055 19.1914 123.055 19.6641V22.6172C123.055 22.8281 123.072 23.0527 123.107 23.291C123.146 23.5293 123.203 23.7344 123.277 23.9062V24H122.146C122.092 23.875 122.049 23.709 122.018 23.502C121.986 23.291 121.971 23.0957 121.971 22.916ZM122.158 20.1562L122.17 20.918H121.074C120.766 20.918 120.49 20.9434 120.248 20.9941C120.006 21.041 119.803 21.1133 119.639 21.2109C119.475 21.3086 119.35 21.4316 119.264 21.5801C119.178 21.7246 119.135 21.8945 119.135 22.0898C119.135 22.2891 119.18 22.4707 119.27 22.6348C119.359 22.7988 119.494 22.9297 119.674 23.0273C119.857 23.1211 120.082 23.168 120.348 23.168C120.68 23.168 120.973 23.0977 121.227 22.957C121.48 22.8164 121.682 22.6445 121.83 22.4414C121.982 22.2383 122.064 22.041 122.076 21.8496L122.539 22.3711C122.512 22.5352 122.438 22.7168 122.316 22.916C122.195 23.1152 122.033 23.3066 121.83 23.4902C121.631 23.6699 121.393 23.8203 121.115 23.9414C120.842 24.0586 120.533 24.1172 120.189 24.1172C119.76 24.1172 119.383 24.0332 119.059 23.8652C118.738 23.6973 118.488 23.4727 118.309 23.1914C118.133 22.9062 118.045 22.5879 118.045 22.2363C118.045 21.8965 118.111 21.5977 118.244 21.3398C118.377 21.0781 118.568 20.8613 118.818 20.6895C119.068 20.5137 119.369 20.3809 119.721 20.291C120.072 20.2012 120.465 20.1562 120.898 20.1562H122.158ZM129.541 17.6602V24H128.457V17.6602H129.541ZM129.172 20.5723V21.4629C128.953 21.5449 128.73 21.6191 128.504 21.6855C128.281 21.748 128.045 21.7988 127.795 21.8379C127.549 21.873 127.281 21.8906 126.992 21.8906C126.492 21.8906 126.059 21.8047 125.691 21.6328C125.324 21.457 125.041 21.1934 124.842 20.8418C124.643 20.4863 124.543 20.0391 124.543 19.5V17.6484H125.627V19.5C125.627 19.8516 125.68 20.1367 125.785 20.3555C125.891 20.5742 126.045 20.7363 126.248 20.8418C126.451 20.9434 126.699 20.9941 126.992 20.9941C127.273 20.9941 127.537 20.9766 127.783 20.9414C128.033 20.9023 128.271 20.8516 128.498 20.7891C128.729 20.7266 128.953 20.6543 129.172 20.5723ZM133.918 24.1172C133.477 24.1172 133.076 24.043 132.717 23.8945C132.361 23.7422 132.055 23.5293 131.797 23.2559C131.543 22.9824 131.348 22.6582 131.211 22.2832C131.074 21.9082 131.006 21.498 131.006 21.0527V20.8066C131.006 20.291 131.082 19.832 131.234 19.4297C131.387 19.0234 131.594 18.6797 131.855 18.3984C132.117 18.1172 132.414 17.9043 132.746 17.7598C133.078 17.6152 133.422 17.543 133.777 17.543C134.23 17.543 134.621 17.6211 134.949 17.7773C135.281 17.9336 135.553 18.1523 135.764 18.4336C135.975 18.7109 136.131 19.0391 136.232 19.418C136.334 19.793 136.385 20.2031 136.385 20.6484V21.1348H131.65V20.25H135.301V20.168C135.285 19.8867 135.227 19.6133 135.125 19.3477C135.027 19.082 134.871 18.8633 134.656 18.6914C134.441 18.5195 134.148 18.4336 133.777 18.4336C133.531 18.4336 133.305 18.4863 133.098 18.5918C132.891 18.6934 132.713 18.8457 132.564 19.0488C132.416 19.252 132.301 19.5 132.219 19.793C132.137 20.0859 132.096 20.4238 132.096 20.8066V21.0527C132.096 21.3535 132.137 21.6367 132.219 21.9023C132.305 22.1641 132.428 22.3945 132.588 22.5938C132.752 22.793 132.949 22.9492 133.18 23.0625C133.414 23.1758 133.68 23.2324 133.977 23.2324C134.359 23.2324 134.684 23.1543 134.949 22.998C135.215 22.8418 135.447 22.6328 135.646 22.3711L136.303 22.8926C136.166 23.0996 135.992 23.2969 135.781 23.4844C135.57 23.6719 135.311 23.8242 135.002 23.9414C134.697 24.0586 134.336 24.1172 133.918 24.1172Z" fill="#111111"/>
<path d="M496.299 23.6094V24.5H490.715V23.7207L493.51 20.6094C493.854 20.2266 494.119 19.9023 494.307 19.6367C494.498 19.3672 494.631 19.127 494.705 18.916C494.783 18.7012 494.822 18.4824 494.822 18.2598C494.822 17.9785 494.764 17.7246 494.646 17.498C494.533 17.2676 494.365 17.084 494.143 16.9473C493.92 16.8105 493.65 16.7422 493.334 16.7422C492.955 16.7422 492.639 16.8164 492.385 16.9648C492.135 17.1094 491.947 17.3125 491.822 17.5742C491.697 17.8359 491.635 18.1367 491.635 18.4766H490.551C490.551 17.9961 490.656 17.5566 490.867 17.1582C491.078 16.7598 491.391 16.4434 491.805 16.209C492.219 15.9707 492.729 15.8516 493.334 15.8516C493.873 15.8516 494.334 15.9473 494.717 16.1387C495.1 16.3262 495.393 16.5918 495.596 16.9355C495.803 17.2754 495.906 17.6738 495.906 18.1309C495.906 18.3809 495.863 18.6348 495.777 18.8926C495.695 19.1465 495.58 19.4004 495.432 19.6543C495.287 19.9082 495.117 20.1582 494.922 20.4043C494.73 20.6504 494.525 20.8926 494.307 21.1309L492.021 23.6094H496.299ZM498.83 20.4395L497.963 20.2168L498.391 15.9688H502.768V16.9707H499.311L499.053 19.291C499.209 19.2012 499.406 19.1172 499.645 19.0391C499.887 18.9609 500.164 18.9219 500.477 18.9219C500.871 18.9219 501.225 18.9902 501.537 19.127C501.85 19.2598 502.115 19.4512 502.334 19.7012C502.557 19.9512 502.727 20.252 502.844 20.6035C502.961 20.9551 503.02 21.3477 503.02 21.7812C503.02 22.1914 502.963 22.5684 502.85 22.9121C502.74 23.2559 502.574 23.5566 502.352 23.8145C502.129 24.0684 501.848 24.2656 501.508 24.4062C501.172 24.5469 500.775 24.6172 500.318 24.6172C499.975 24.6172 499.648 24.5703 499.34 24.4766C499.035 24.3789 498.762 24.2324 498.52 24.0371C498.281 23.8379 498.086 23.5918 497.934 23.2988C497.785 23.002 497.691 22.6543 497.652 22.2559H498.684C498.73 22.5762 498.824 22.8457 498.965 23.0645C499.105 23.2832 499.289 23.4492 499.516 23.5625C499.746 23.6719 500.014 23.7266 500.318 23.7266C500.576 23.7266 500.805 23.6816 501.004 23.5918C501.203 23.502 501.371 23.373 501.508 23.2051C501.645 23.0371 501.748 22.834 501.818 22.5957C501.893 22.3574 501.93 22.0898 501.93 21.793C501.93 21.5234 501.893 21.2734 501.818 21.043C501.744 20.8125 501.633 20.6113 501.484 20.4395C501.34 20.2676 501.162 20.1348 500.951 20.041C500.74 19.9434 500.498 19.8945 500.225 19.8945C499.861 19.8945 499.586 19.9434 499.398 20.041C499.215 20.1387 499.025 20.2715 498.83 20.4395ZM504.344 23.9258C504.344 23.7422 504.4 23.5879 504.514 23.4629C504.631 23.334 504.799 23.2695 505.018 23.2695C505.236 23.2695 505.402 23.334 505.516 23.4629C505.633 23.5879 505.691 23.7422 505.691 23.9258C505.691 24.1055 505.633 24.2578 505.516 24.3828C505.402 24.5078 505.236 24.5703 505.018 24.5703C504.799 24.5703 504.631 24.5078 504.514 24.3828C504.4 24.2578 504.344 24.1055 504.344 23.9258ZM512.729 19.5547V20.8555C512.729 21.5547 512.666 22.1445 512.541 22.625C512.416 23.1055 512.236 23.4922 512.002 23.7852C511.768 24.0781 511.484 24.291 511.152 24.4238C510.824 24.5527 510.453 24.6172 510.039 24.6172C509.711 24.6172 509.408 24.5762 509.131 24.4941C508.854 24.4121 508.604 24.2812 508.381 24.1016C508.162 23.918 507.975 23.6797 507.818 23.3867C507.662 23.0938 507.543 22.7383 507.461 22.3203C507.379 21.9023 507.338 21.4141 507.338 20.8555V19.5547C507.338 18.8555 507.4 18.2695 507.525 17.7969C507.654 17.3242 507.836 16.9453 508.07 16.6602C508.305 16.3711 508.586 16.1641 508.914 16.0391C509.246 15.9141 509.617 15.8516 510.027 15.8516C510.359 15.8516 510.664 15.8926 510.941 15.9746C511.223 16.0527 511.473 16.1797 511.691 16.3555C511.91 16.5273 512.096 16.7578 512.248 17.0469C512.404 17.332 512.523 17.6816 512.605 18.0957C512.688 18.5098 512.729 18.9961 512.729 19.5547ZM511.639 21.0312V19.373C511.639 18.9902 511.615 18.6543 511.568 18.3652C511.525 18.0723 511.461 17.8223 511.375 17.6152C511.289 17.4082 511.18 17.2402 511.047 17.1113C510.918 16.9824 510.768 16.8887 510.596 16.8301C510.428 16.7676 510.238 16.7363 510.027 16.7363C509.77 16.7363 509.541 16.7852 509.342 16.8828C509.143 16.9766 508.975 17.127 508.838 17.334C508.705 17.541 508.604 17.8125 508.533 18.1484C508.463 18.4844 508.428 18.8926 508.428 19.373V21.0312C508.428 21.4141 508.449 21.752 508.492 22.0449C508.539 22.3379 508.607 22.5918 508.697 22.8066C508.787 23.0176 508.896 23.1914 509.025 23.3281C509.154 23.4648 509.303 23.5664 509.471 23.6328C509.643 23.6953 509.832 23.7266 510.039 23.7266C510.305 23.7266 510.537 23.6758 510.736 23.5742C510.936 23.4727 511.102 23.3145 511.234 23.0996C511.371 22.8809 511.473 22.6016 511.539 22.2617C511.605 21.918 511.639 21.5078 511.639 21.0312ZM517.686 15.9219V24.5H516.602V17.2754L514.416 18.0723V17.0938L517.516 15.9219H517.686ZM521.008 23.9258C521.008 23.7422 521.064 23.5879 521.178 23.4629C521.295 23.334 521.463 23.2695 521.682 23.2695C521.9 23.2695 522.066 23.334 522.18 23.4629C522.297 23.5879 522.355 23.7422 522.355 23.9258C522.355 24.1055 522.297 24.2578 522.18 24.3828C522.066 24.5078 521.9 24.5703 521.682 24.5703C521.463 24.5703 521.295 24.5078 521.178 24.3828C521.064 24.2578 521.008 24.1055 521.008 23.9258ZM529.627 23.6094V24.5H524.043V23.7207L526.838 20.6094C527.182 20.2266 527.447 19.9023 527.635 19.6367C527.826 19.3672 527.959 19.127 528.033 18.916C528.111 18.7012 528.15 18.4824 528.15 18.2598C528.15 17.9785 528.092 17.7246 527.975 17.498C527.861 17.2676 527.693 17.084 527.471 16.9473C527.248 16.8105 526.979 16.7422 526.662 16.7422C526.283 16.7422 525.967 16.8164 525.713 16.9648C525.463 17.1094 525.275 17.3125 525.15 17.5742C525.025 17.8359 524.963 18.1367 524.963 18.4766H523.879C523.879 17.9961 523.984 17.5566 524.195 17.1582C524.406 16.7598 524.719 16.4434 525.133 16.209C525.547 15.9707 526.057 15.8516 526.662 15.8516C527.201 15.8516 527.662 15.9473 528.045 16.1387C528.428 16.3262 528.721 16.5918 528.924 16.9355C529.131 17.2754 529.234 17.6738 529.234 18.1309C529.234 18.3809 529.191 18.6348 529.105 18.8926C529.023 19.1465 528.908 19.4004 528.76 19.6543C528.615 19.9082 528.445 20.1582 528.25 20.4043C528.059 20.6504 527.854 20.8926 527.635 21.1309L525.35 23.6094H529.627ZM536.143 19.5547V20.8555C536.143 21.5547 536.08 22.1445 535.955 22.625C535.83 23.1055 535.65 23.4922 535.416 23.7852C535.182 24.0781 534.898 24.291 534.566 24.4238C534.238 24.5527 533.867 24.6172 533.453 24.6172C533.125 24.6172 532.822 24.5762 532.545 24.4941C532.268 24.4121 532.018 24.2812 531.795 24.1016C531.576 23.918 531.389 23.6797 531.232 23.3867C531.076 23.0938 530.957 22.7383 530.875 22.3203C530.793 21.9023 530.752 21.4141 530.752 20.8555V19.5547C530.752 18.8555 530.814 18.2695 530.939 17.7969C531.068 17.3242 531.25 16.9453 531.484 16.6602C531.719 16.3711 532 16.1641 532.328 16.0391C532.66 15.9141 533.031 15.8516 533.441 15.8516C533.773 15.8516 534.078 15.8926 534.355 15.9746C534.637 16.0527 534.887 16.1797 535.105 16.3555C535.324 16.5273 535.51 16.7578 535.662 17.0469C535.818 17.332 535.938 17.6816 536.02 18.0957C536.102 18.5098 536.143 18.9961 536.143 19.5547ZM535.053 21.0312V19.373C535.053 18.9902 535.029 18.6543 534.982 18.3652C534.939 18.0723 534.875 17.8223 534.789 17.6152C534.703 17.4082 534.594 17.2402 534.461 17.1113C534.332 16.9824 534.182 16.8887 534.01 16.8301C533.842 16.7676 533.652 16.7363 533.441 16.7363C533.184 16.7363 532.955 16.7852 532.756 16.8828C532.557 16.9766 532.389 17.127 532.252 17.334C532.119 17.541 532.018 17.8125 531.947 18.1484C531.877 18.4844 531.842 18.8926 531.842 19.373V21.0312C531.842 21.4141 531.863 21.752 531.906 22.0449C531.953 22.3379 532.021 22.5918 532.111 22.8066C532.201 23.0176 532.311 23.1914 532.439 23.3281C532.568 23.4648 532.717 23.5664 532.885 23.6328C533.057 23.6953 533.246 23.7266 533.453 23.7266C533.719 23.7266 533.951 23.6758 534.15 23.5742C534.35 23.4727 534.516 23.3145 534.648 23.0996C534.785 22.8809 534.887 22.6016 534.953 22.2617C535.02 21.918 535.053 21.5078 535.053 21.0312ZM543.127 23.6094V24.5H537.543V23.7207L540.338 20.6094C540.682 20.2266 540.947 19.9023 541.135 19.6367C541.326 19.3672 541.459 19.127 541.533 18.916C541.611 18.7012 541.65 18.4824 541.65 18.2598C541.65 17.9785 541.592 17.7246 541.475 17.498C541.361 17.2676 541.193 17.084 540.971 16.9473C540.748 16.8105 540.479 16.7422 540.162 16.7422C539.783 16.7422 539.467 16.8164 539.213 16.9648C538.963 17.1094 538.775 17.3125 538.65 17.5742C538.525 17.8359 538.463 18.1367 538.463 18.4766H537.379C537.379 17.9961 537.484 17.5566 537.695 17.1582C537.906 16.7598 538.219 16.4434 538.633 16.209C539.047 15.9707 539.557 15.8516 540.162 15.8516C540.701 15.8516 541.162 15.9473 541.545 16.1387C541.928 16.3262 542.221 16.5918 542.424 16.9355C542.631 17.2754 542.734 17.6738 542.734 18.1309C542.734 18.3809 542.691 18.6348 542.605 18.8926C542.523 19.1465 542.408 19.4004 542.26 19.6543C542.115 19.9082 541.945 20.1582 541.75 20.4043C541.559 20.6504 541.354 20.8926 541.135 21.1309L538.85 23.6094H543.127ZM548.447 15.957H548.541V16.877H548.447C547.873 16.877 547.393 16.9707 547.006 17.1582C546.619 17.3418 546.312 17.5898 546.086 17.9023C545.859 18.2109 545.695 18.5586 545.594 18.9453C545.496 19.332 545.447 19.7246 545.447 20.123V21.377C545.447 21.7559 545.492 22.0918 545.582 22.3848C545.672 22.6738 545.795 22.918 545.951 23.1172C546.107 23.3164 546.283 23.4668 546.479 23.5684C546.678 23.6699 546.885 23.7207 547.1 23.7207C547.35 23.7207 547.572 23.6738 547.768 23.5801C547.963 23.4824 548.127 23.3477 548.26 23.1758C548.396 23 548.5 22.793 548.57 22.5547C548.641 22.3164 548.676 22.0547 548.676 21.7695C548.676 21.5156 548.645 21.2715 548.582 21.0371C548.52 20.7988 548.424 20.5879 548.295 20.4043C548.166 20.2168 548.004 20.0703 547.809 19.9648C547.617 19.8555 547.389 19.8008 547.123 19.8008C546.822 19.8008 546.541 19.875 546.279 20.0234C546.021 20.168 545.809 20.3594 545.641 20.5977C545.477 20.832 545.383 21.0879 545.359 21.3652L544.785 21.3594C544.84 20.9219 544.941 20.5488 545.09 20.2402C545.242 19.9277 545.43 19.6738 545.652 19.4785C545.879 19.2793 546.131 19.1348 546.408 19.0449C546.689 18.9512 546.986 18.9043 547.299 18.9043C547.725 18.9043 548.092 18.9844 548.4 19.1445C548.709 19.3047 548.963 19.5195 549.162 19.7891C549.361 20.0547 549.508 20.3555 549.602 20.6914C549.699 21.0234 549.748 21.3652 549.748 21.7168C549.748 22.1191 549.691 22.4961 549.578 22.8477C549.465 23.1992 549.295 23.5078 549.068 23.7734C548.846 24.0391 548.57 24.2461 548.242 24.3945C547.914 24.543 547.533 24.6172 547.1 24.6172C546.639 24.6172 546.236 24.5234 545.893 24.3359C545.549 24.1445 545.264 23.8906 545.037 23.5742C544.811 23.2578 544.641 22.9062 544.527 22.5195C544.414 22.1328 544.357 21.7402 544.357 21.3418V20.832C544.357 20.2305 544.418 19.6406 544.539 19.0625C544.66 18.4844 544.869 17.9609 545.166 17.4922C545.467 17.0234 545.883 16.6504 546.414 16.373C546.945 16.0957 547.623 15.957 548.447 15.957Z" fill="#111111" fill-opacity="0.55"/>
</svg>
